<?xml version="1.0" encoding="iso-8859-1"?>
<!-- Uploaded to: SVG Repo, www.svgrepo.com, Generator: SVG Repo Mixer Tools -->
<svg height="800px" width="800px" version="1.1" id="Layer_1" xmlns="http://www.w3.org/2000/svg" xmlns:xlink="http://www.w3.org/1999/xlink" 
	 viewBox="0 0 512 512" xml:space="preserve">
<g>
	<circle style="fill:#E21B1B;" cx="75.584" cy="207.427" r="43.816"/>
	<path style="fill:#E21B1B;" d="M151.16,348.371c0,0,0,2.048,0-38.784s-44.56-41.576-44.56-41.576H44.56
		c0,0-44.56,0.496-44.56,41.576c0,40.824,0,38.784,0,38.784H151.16z"/>
</g>
<g>
	<circle style="fill:#222020;" cx="256" cy="207.427" r="43.816"/>
	<path style="fill:#222020;" d="M331.584,348.371c0,0,0,2.048,0-38.784s-44.56-41.576-44.56-41.576h-62.032
		c0,0-44.56,0.496-44.56,41.576c0,40.824,0,38.784,0,38.784H331.584z"/>
	<circle style="fill:#222020;" cx="436.4" cy="207.427" r="43.816"/>
	<path style="fill:#222020;" d="M512,348.371c0,0,0,2.048,0-38.784s-44.56-41.576-44.56-41.576h-62.032
		c0,0-44.56,0.496-44.56,41.576c0,40.824,0,38.784,0,38.784H512z"/>
</g>
</svg>